<svg xmlns="http://www.w3.org/2000/svg" viewBox="2110.795 -238.06 5164.892 1083.314" width="5164.89" height="1083.31">
  <defs>
    <clipPath id="a">
      <path d="M9306 500h5177.8v1102c0 2.21-1.8 4-4 4H9310c-2.21 0-4-1.79-4-4V500Z" fill="#fff"/>
    </clipPath>
  </defs>
  <g clip-path="url(#a)" transform="translate(-7200.514 -738.06)">
    <path d="M10231.3 565.1c-398.06-177.263-787.38 28.972-891.51 359.38-56.07 178.03 37.07 353.96 279.26 395.42-302.19-295.87 161.66-833.399 612.25-754.8Z" fill="#36B4A7"/>
    <path d="m9477.16 1296.37 136.71 171.59c243.55 242.48 767.53 88.21 876.53-327.25 19-123.52 15.8-265.062-50.6-403.261-90 414.391-539.23 699.641-962.64 558.921Z" fill="#64BA93"/>
    <path d="M10262.3 1469.2c89-66.08 154.6-138.82 193.2-229.47 200.3-468.129-118.1-846.507-588.61-614.674 200.61-83.068 463.61-61.11 565.91 112.543 170.4 290.541-64.4 679.371-170.5 731.601Z" fill="#DBDFE2"/>
    <path d="M10015.2 1258.44c-242.29 77.47-681.4 87.86-688.34-232.69-1.45-44.571 7.93-70.939 14.92-114.261l-14.08 41.31c-111.31 361.721 369.25 467.371 687.5 305.641Z" fill="#fff"/>
    <path d="M11187.7 1545.52h-69.8V1239.7c-59.2 74.93-132.3 112.4-219.2 112.4-78.9 0-145.5-29.62-199.7-88.87-53.5-58.18-80.2-128.76-80.2-211.71 0-81.883 27.3-151.928 82-210.14 54.7-58.209 121.3-87.299 199.9-87.299 89.9 0 162.4 39.744 217.2 119.2V768.73h69.8v776.79Zm-67.3-488.29c0-64.923-20.4-119.643-61.1-164.092-40.7-44.446-91.9-66.671-153.7-66.671-83 0-145 38.026-185.8 114.08-19.6 36.133-29.4 74.333-29.4 114.613 0 40.31 9.8 78.57 29.4 114.88 19.6 36.28 45.9 64.6 78.9 84.91 33.1 20.33 68.6 30.48 106.4 30.48 38.2 0 74.4-10.06 108.7-30.19 34.2-20.15 60.5-47.41 78.9-81.79 18.5-34.39 27.7-73.13 27.7-116.22ZM11797.3 1047.5c0 64.06-5.9 114.85-17.5 152.46-15.9 51.17-45 90.35-87.2 117.48-35.2 22.64-79.3 33.95-132.1 33.95-104.1 0-174.5-42.65-211.4-127.9-17.6-40.04-26.4-100.44-26.4-181.2V768.698h74.4v264.972c0 65.38 3.3 109.88 9.9 133.53 10.2 36.16 30 64.34 59.4 84.49 27.6 18.79 60 28.17 96.9 28.17 35.9 0 67.4-8.88 94.5-26.6 28.6-19.12 48.4-45.9 59.3-80.32 6.9-21.87 10.4-68.3 10.4-139.27V768.698h69.8V1047.5ZM12485.9 1337.42h-69.8v-97.75c-59.2 74.93-132.2 112.4-219.2 112.4-78.9 0-145.5-29.62-199.6-88.87-53.5-58.18-80.3-128.76-80.3-211.71 0-81.882 27.4-151.928 82-210.14 54.7-58.208 121.3-87.298 199.9-87.298 90 0 162.4 39.743 217.2 119.172V768.671h69.8v568.749Zm-65.9-280.19c0-64.922-20.4-119.643-61-164.089-40.8-44.449-92-66.674-153.8-66.674-83 0-145 38.026-185.8 114.08-19.6 36.133-29.4 74.333-29.4 114.613 0 40.31 9.8 78.57 29.4 114.88 19.6 36.28 45.9 64.6 78.9 84.91 33.1 20.33 68.6 30.48 106.4 30.48 38.2 0 74.5-10.06 108.7-30.19 34.2-20.15 60.5-47.41 78.9-81.79 18.4-34.39 27.7-73.13 27.7-116.22Z" fill="#383838"/>
    <path d="M12690.6 1337.42h-69.8V551.34h69.8v786.08ZM13370 1337.42h-69.8v-97.75c-59.2 74.93-132.3 112.4-219.2 112.4-78.9 0-145.5-29.62-199.6-88.87-53.6-58.18-80.3-128.76-80.3-211.71 0-81.882 27.3-151.928 82-210.14 54.7-58.208 121.3-87.298 199.9-87.298 89.9 0 162.3 39.743 217.2 119.172V768.671h69.8v568.749Zm-67-280.19c0-64.922-20.4-119.643-61-164.089-40.8-44.449-92-66.674-153.8-66.674-83 0-145 38.026-185.8 114.08-19.6 36.133-29.4 74.333-29.4 114.613 0 40.31 9.8 78.57 29.4 114.88 19.6 36.28 45.9 64.6 78.9 84.91 33.1 20.33 68.6 30.48 106.5 30.48 38.2 0 74.4-10.06 108.6-30.19 34.2-20.15 60.5-47.41 79-81.79 18.4-34.39 27.6-73.13 27.6-116.22ZM14083.7 1054.9c0 82-27.2 152.05-81.5 210.08-54.2 58.03-120.4 87.03-198.4 87.03-88.3 0-160-39.59-215.2-118.84v104.25h-69.8V551.34h69.8v316.411c58.1-74.724 130.5-112.07 217.2-112.07 78.3 0 144.2 29.297 197.7 87.834 53.5 58.564 80.2 129.025 80.2 211.385Zm-69.2-1.84c0-40.27-9.8-78.655-29.4-115.114-19.6-36.459-46-64.868-79-85.171-33.1-20.299-68.4-30.481-105.9-30.481-38.2 0-74.5 10.182-108.9 30.481-34.3 20.303-60.7 47.675-79.2 82.062-18.4 34.388-27.7 73.093-27.7 116.153 0 64.96 20.4 119.65 61.1 164.1 40.7 44.44 91.9 66.67 153.7 66.67 83 0 145.2-38.03 186.4-114.08 19.2-36.14 28.9-74.31 28.9-114.62ZM14476.2 1185.43c0 48.12-15.8 88.01-47.4 119.74-31.7 31.72-70.6 47.58-116.9 47.58-66.9 0-120.4-26.78-160.3-80.4l43.9-52.23c35.5 41.78 73.3 62.68 113.1 62.68 26.3 0 49.6-8.94 70-26.85 20.4-17.87 30.7-40.36 30.7-67.44 0-27.4-12.2-51.55-36.4-72.38-12-10.42-35.6-25.01-70.8-43.77-40.2-21.57-69.6-42.97-88.2-64.22-25.2-28.525-37.9-62.646-37.9-102.331 0-44.213 14.3-80.316 42.7-108.341 28.5-28.025 63.9-42.022 106.2-42.022 49.9 0 100.2 25.598 150.8 76.764l-44.8 48.562c-37.3-37.583-73.6-56.373-109.2-56.373-21.6 0-40.7 7.428-57.3 22.341-16.6 14.886-24.9 33.41-24.9 55.578 0 37.374 34.5 74.781 103.6 112.162 42.6 23.02 73.5 44.98 92.7 65.87 26.9 29.24 40.4 64.3 40.4 105.08Z" fill="#64BA93"/>
  </g>
</svg>